<mxfile host="app.diagrams.net" modified="2023-11-15T12:07:54.227Z" agent="Mozilla/5.0 (Windows NT 10.0; Win64; x64) AppleWebKit/537.36 (KHTML, like Gecko) Chrome/119.0.0.0 Safari/537.36 Edg/119.0.0.0" etag="7YZqOvFy-KwayDXbJI8H" version="22.1.1" type="device">
  <diagram name="Страница — 1" id="tYz9dFUinxgDpFaN_UoN">
    <mxGraphModel dx="1386" dy="793" grid="1" gridSize="10" guides="1" tooltips="1" connect="1" arrows="1" fold="1" page="1" pageScale="1" pageWidth="827" pageHeight="1169" math="0" shadow="0">
      <root>
        <mxCell id="0" />
        <mxCell id="1" parent="0" />
        <mxCell id="HL-mYtazHuZGyib0t5cv-5" value="" style="rounded=0;whiteSpace=wrap;html=1;" vertex="1" parent="1">
          <mxGeometry x="250" y="410" width="120" height="60" as="geometry" />
        </mxCell>
        <mxCell id="HL-mYtazHuZGyib0t5cv-6" value="" style="endArrow=none;html=1;rounded=0;entryX=1;entryY=0.75;entryDx=0;entryDy=0;exitX=0;exitY=0.75;exitDx=0;exitDy=0;" edge="1" parent="1" source="HL-mYtazHuZGyib0t5cv-5" target="HL-mYtazHuZGyib0t5cv-5">
          <mxGeometry width="50" height="50" relative="1" as="geometry">
            <mxPoint x="150" y="600" as="sourcePoint" />
            <mxPoint x="200" y="550" as="targetPoint" />
          </mxGeometry>
        </mxCell>
        <mxCell id="HL-mYtazHuZGyib0t5cv-7" value="" style="endArrow=none;html=1;rounded=0;" edge="1" parent="1">
          <mxGeometry width="50" height="50" relative="1" as="geometry">
            <mxPoint x="310" y="470" as="sourcePoint" />
            <mxPoint x="310" y="455" as="targetPoint" />
          </mxGeometry>
        </mxCell>
        <mxCell id="HL-mYtazHuZGyib0t5cv-8" value="Заявка на заказ" style="text;html=1;strokeColor=none;fillColor=none;align=center;verticalAlign=middle;whiteSpace=wrap;rounded=0;" vertex="1" parent="1">
          <mxGeometry x="250" y="410" width="120" height="45" as="geometry" />
        </mxCell>
        <mxCell id="HL-mYtazHuZGyib0t5cv-9" value="1" style="text;html=1;strokeColor=none;fillColor=none;align=center;verticalAlign=middle;whiteSpace=wrap;rounded=0;" vertex="1" parent="1">
          <mxGeometry x="250" y="453" width="10" height="20" as="geometry" />
        </mxCell>
        <mxCell id="HL-mYtazHuZGyib0t5cv-10" value="" style="rounded=0;whiteSpace=wrap;html=1;" vertex="1" parent="1">
          <mxGeometry x="414" y="409.5" width="120" height="60" as="geometry" />
        </mxCell>
        <mxCell id="HL-mYtazHuZGyib0t5cv-11" value="" style="endArrow=none;html=1;rounded=0;entryX=1;entryY=0.75;entryDx=0;entryDy=0;exitX=0;exitY=0.75;exitDx=0;exitDy=0;" edge="1" parent="1" source="HL-mYtazHuZGyib0t5cv-10" target="HL-mYtazHuZGyib0t5cv-10">
          <mxGeometry width="50" height="50" relative="1" as="geometry">
            <mxPoint x="314" y="599.5" as="sourcePoint" />
            <mxPoint x="364" y="549.5" as="targetPoint" />
          </mxGeometry>
        </mxCell>
        <mxCell id="HL-mYtazHuZGyib0t5cv-12" value="" style="endArrow=none;html=1;rounded=0;" edge="1" parent="1">
          <mxGeometry width="50" height="50" relative="1" as="geometry">
            <mxPoint x="474" y="469.5" as="sourcePoint" />
            <mxPoint x="474" y="454.5" as="targetPoint" />
          </mxGeometry>
        </mxCell>
        <mxCell id="HL-mYtazHuZGyib0t5cv-13" value="Ожидание на оплату" style="text;html=1;strokeColor=none;fillColor=none;align=center;verticalAlign=middle;whiteSpace=wrap;rounded=0;" vertex="1" parent="1">
          <mxGeometry x="414" y="409.5" width="120" height="45" as="geometry" />
        </mxCell>
        <mxCell id="HL-mYtazHuZGyib0t5cv-14" value="2" style="text;html=1;strokeColor=none;fillColor=none;align=center;verticalAlign=middle;whiteSpace=wrap;rounded=0;" vertex="1" parent="1">
          <mxGeometry x="414" y="452.5" width="10" height="20" as="geometry" />
        </mxCell>
        <mxCell id="HL-mYtazHuZGyib0t5cv-15" value="" style="whiteSpace=wrap;html=1;aspect=fixed;" vertex="1" parent="1">
          <mxGeometry x="578" y="419" width="40" height="40" as="geometry" />
        </mxCell>
        <mxCell id="HL-mYtazHuZGyib0t5cv-16" value="" style="endArrow=none;html=1;rounded=0;entryX=0.25;entryY=0;entryDx=0;entryDy=0;exitX=0.25;exitY=1;exitDx=0;exitDy=0;" edge="1" parent="1" source="HL-mYtazHuZGyib0t5cv-15" target="HL-mYtazHuZGyib0t5cv-15">
          <mxGeometry width="50" height="50" relative="1" as="geometry">
            <mxPoint x="548" y="519" as="sourcePoint" />
            <mxPoint x="598" y="469" as="targetPoint" />
          </mxGeometry>
        </mxCell>
        <mxCell id="HL-mYtazHuZGyib0t5cv-17" value="&lt;font style=&quot;font-size: 18px;&quot;&gt;&amp;amp;&amp;nbsp;&lt;/font&gt;" style="text;html=1;strokeColor=none;fillColor=none;align=center;verticalAlign=middle;whiteSpace=wrap;rounded=0;" vertex="1" parent="1">
          <mxGeometry x="588" y="424" width="30" height="30" as="geometry" />
        </mxCell>
        <mxCell id="HL-mYtazHuZGyib0t5cv-18" value="" style="rounded=0;whiteSpace=wrap;html=1;" vertex="1" parent="1">
          <mxGeometry x="662" y="347" width="120" height="60" as="geometry" />
        </mxCell>
        <mxCell id="HL-mYtazHuZGyib0t5cv-19" value="" style="endArrow=none;html=1;rounded=0;entryX=1;entryY=0.75;entryDx=0;entryDy=0;exitX=0;exitY=0.75;exitDx=0;exitDy=0;" edge="1" parent="1" source="HL-mYtazHuZGyib0t5cv-18" target="HL-mYtazHuZGyib0t5cv-18">
          <mxGeometry width="50" height="50" relative="1" as="geometry">
            <mxPoint x="562" y="537" as="sourcePoint" />
            <mxPoint x="612" y="487" as="targetPoint" />
          </mxGeometry>
        </mxCell>
        <mxCell id="HL-mYtazHuZGyib0t5cv-20" value="" style="endArrow=none;html=1;rounded=0;" edge="1" parent="1">
          <mxGeometry width="50" height="50" relative="1" as="geometry">
            <mxPoint x="722" y="407" as="sourcePoint" />
            <mxPoint x="722" y="392" as="targetPoint" />
          </mxGeometry>
        </mxCell>
        <mxCell id="HL-mYtazHuZGyib0t5cv-21" value="Ошибка при оплате" style="text;html=1;strokeColor=none;fillColor=none;align=center;verticalAlign=middle;whiteSpace=wrap;rounded=0;" vertex="1" parent="1">
          <mxGeometry x="662" y="347" width="120" height="45" as="geometry" />
        </mxCell>
        <mxCell id="HL-mYtazHuZGyib0t5cv-22" value="3" style="text;html=1;strokeColor=none;fillColor=none;align=center;verticalAlign=middle;whiteSpace=wrap;rounded=0;" vertex="1" parent="1">
          <mxGeometry x="662" y="390" width="10" height="20" as="geometry" />
        </mxCell>
        <mxCell id="HL-mYtazHuZGyib0t5cv-23" value="" style="rounded=0;whiteSpace=wrap;html=1;" vertex="1" parent="1">
          <mxGeometry x="661" y="473" width="120" height="60" as="geometry" />
        </mxCell>
        <mxCell id="HL-mYtazHuZGyib0t5cv-24" value="" style="endArrow=none;html=1;rounded=0;entryX=1;entryY=0.75;entryDx=0;entryDy=0;exitX=0;exitY=0.75;exitDx=0;exitDy=0;" edge="1" parent="1" source="HL-mYtazHuZGyib0t5cv-23" target="HL-mYtazHuZGyib0t5cv-23">
          <mxGeometry width="50" height="50" relative="1" as="geometry">
            <mxPoint x="561" y="663" as="sourcePoint" />
            <mxPoint x="611" y="613" as="targetPoint" />
          </mxGeometry>
        </mxCell>
        <mxCell id="HL-mYtazHuZGyib0t5cv-25" value="" style="endArrow=none;html=1;rounded=0;" edge="1" parent="1">
          <mxGeometry width="50" height="50" relative="1" as="geometry">
            <mxPoint x="721" y="533" as="sourcePoint" />
            <mxPoint x="721" y="518" as="targetPoint" />
          </mxGeometry>
        </mxCell>
        <mxCell id="HL-mYtazHuZGyib0t5cv-26" value="Успешная оплата" style="text;html=1;strokeColor=none;fillColor=none;align=center;verticalAlign=middle;whiteSpace=wrap;rounded=0;" vertex="1" parent="1">
          <mxGeometry x="661" y="473" width="120" height="45" as="geometry" />
        </mxCell>
        <mxCell id="HL-mYtazHuZGyib0t5cv-27" value="4" style="text;html=1;strokeColor=none;fillColor=none;align=center;verticalAlign=middle;whiteSpace=wrap;rounded=0;" vertex="1" parent="1">
          <mxGeometry x="661" y="516" width="10" height="20" as="geometry" />
        </mxCell>
        <mxCell id="HL-mYtazHuZGyib0t5cv-28" value="" style="rounded=0;whiteSpace=wrap;html=1;" vertex="1" parent="1">
          <mxGeometry x="913" y="408.5" width="120" height="60" as="geometry" />
        </mxCell>
        <mxCell id="HL-mYtazHuZGyib0t5cv-29" value="" style="endArrow=none;html=1;rounded=0;entryX=1;entryY=0.75;entryDx=0;entryDy=0;exitX=0;exitY=0.75;exitDx=0;exitDy=0;" edge="1" parent="1" source="HL-mYtazHuZGyib0t5cv-28" target="HL-mYtazHuZGyib0t5cv-28">
          <mxGeometry width="50" height="50" relative="1" as="geometry">
            <mxPoint x="813" y="598.5" as="sourcePoint" />
            <mxPoint x="863" y="548.5" as="targetPoint" />
          </mxGeometry>
        </mxCell>
        <mxCell id="HL-mYtazHuZGyib0t5cv-30" value="" style="endArrow=none;html=1;rounded=0;" edge="1" parent="1">
          <mxGeometry width="50" height="50" relative="1" as="geometry">
            <mxPoint x="973" y="468.5" as="sourcePoint" />
            <mxPoint x="973" y="453.5" as="targetPoint" />
          </mxGeometry>
        </mxCell>
        <mxCell id="HL-mYtazHuZGyib0t5cv-31" value="Сбор заказа" style="text;html=1;strokeColor=none;fillColor=none;align=center;verticalAlign=middle;whiteSpace=wrap;rounded=0;" vertex="1" parent="1">
          <mxGeometry x="913" y="408.5" width="120" height="45" as="geometry" />
        </mxCell>
        <mxCell id="HL-mYtazHuZGyib0t5cv-32" value="5" style="text;html=1;strokeColor=none;fillColor=none;align=center;verticalAlign=middle;whiteSpace=wrap;rounded=0;" vertex="1" parent="1">
          <mxGeometry x="913" y="451.5" width="10" height="20" as="geometry" />
        </mxCell>
        <mxCell id="HL-mYtazHuZGyib0t5cv-35" value="" style="rounded=0;whiteSpace=wrap;html=1;" vertex="1" parent="1">
          <mxGeometry x="1076" y="410" width="120" height="60" as="geometry" />
        </mxCell>
        <mxCell id="HL-mYtazHuZGyib0t5cv-36" value="" style="endArrow=none;html=1;rounded=0;entryX=1;entryY=0.75;entryDx=0;entryDy=0;exitX=0;exitY=0.75;exitDx=0;exitDy=0;" edge="1" parent="1" source="HL-mYtazHuZGyib0t5cv-35" target="HL-mYtazHuZGyib0t5cv-35">
          <mxGeometry width="50" height="50" relative="1" as="geometry">
            <mxPoint x="976" y="600" as="sourcePoint" />
            <mxPoint x="1026" y="550" as="targetPoint" />
          </mxGeometry>
        </mxCell>
        <mxCell id="HL-mYtazHuZGyib0t5cv-37" value="" style="endArrow=none;html=1;rounded=0;" edge="1" parent="1">
          <mxGeometry width="50" height="50" relative="1" as="geometry">
            <mxPoint x="1136" y="470" as="sourcePoint" />
            <mxPoint x="1136" y="455" as="targetPoint" />
          </mxGeometry>
        </mxCell>
        <mxCell id="HL-mYtazHuZGyib0t5cv-38" value="Доставка заказа" style="text;html=1;strokeColor=none;fillColor=none;align=center;verticalAlign=middle;whiteSpace=wrap;rounded=0;" vertex="1" parent="1">
          <mxGeometry x="1076" y="410" width="120" height="45" as="geometry" />
        </mxCell>
        <mxCell id="HL-mYtazHuZGyib0t5cv-39" value="6" style="text;html=1;strokeColor=none;fillColor=none;align=center;verticalAlign=middle;whiteSpace=wrap;rounded=0;" vertex="1" parent="1">
          <mxGeometry x="1076" y="453" width="10" height="20" as="geometry" />
        </mxCell>
        <mxCell id="HL-mYtazHuZGyib0t5cv-40" value="" style="rounded=0;whiteSpace=wrap;html=1;" vertex="1" parent="1">
          <mxGeometry x="1101" y="511.5" width="120" height="60" as="geometry" />
        </mxCell>
        <mxCell id="HL-mYtazHuZGyib0t5cv-41" value="" style="endArrow=none;html=1;rounded=0;entryX=1;entryY=0.75;entryDx=0;entryDy=0;exitX=0;exitY=0.75;exitDx=0;exitDy=0;" edge="1" parent="1" source="HL-mYtazHuZGyib0t5cv-40" target="HL-mYtazHuZGyib0t5cv-40">
          <mxGeometry width="50" height="50" relative="1" as="geometry">
            <mxPoint x="1001" y="701.5" as="sourcePoint" />
            <mxPoint x="1051" y="651.5" as="targetPoint" />
          </mxGeometry>
        </mxCell>
        <mxCell id="HL-mYtazHuZGyib0t5cv-43" value="Отзыв клиента" style="text;html=1;strokeColor=none;fillColor=none;align=center;verticalAlign=middle;whiteSpace=wrap;rounded=0;" vertex="1" parent="1">
          <mxGeometry x="1101" y="511.5" width="120" height="45" as="geometry" />
        </mxCell>
        <mxCell id="HL-mYtazHuZGyib0t5cv-45" value="" style="rounded=0;whiteSpace=wrap;html=1;" vertex="1" parent="1">
          <mxGeometry x="610" y="620" width="120" height="60" as="geometry" />
        </mxCell>
        <mxCell id="HL-mYtazHuZGyib0t5cv-46" value="" style="endArrow=none;html=1;rounded=0;entryX=1;entryY=0.75;entryDx=0;entryDy=0;exitX=0;exitY=0.75;exitDx=0;exitDy=0;" edge="1" parent="1" source="HL-mYtazHuZGyib0t5cv-45" target="HL-mYtazHuZGyib0t5cv-45">
          <mxGeometry width="50" height="50" relative="1" as="geometry">
            <mxPoint x="510" y="810" as="sourcePoint" />
            <mxPoint x="560" y="760" as="targetPoint" />
          </mxGeometry>
        </mxCell>
        <mxCell id="HL-mYtazHuZGyib0t5cv-47" value="Сотрудники" style="text;html=1;strokeColor=none;fillColor=none;align=center;verticalAlign=middle;whiteSpace=wrap;rounded=0;" vertex="1" parent="1">
          <mxGeometry x="610" y="620" width="120" height="45" as="geometry" />
        </mxCell>
        <mxCell id="HL-mYtazHuZGyib0t5cv-51" value="" style="whiteSpace=wrap;html=1;aspect=fixed;" vertex="1" parent="1">
          <mxGeometry x="829" y="420" width="40" height="40" as="geometry" />
        </mxCell>
        <mxCell id="HL-mYtazHuZGyib0t5cv-52" value="" style="endArrow=none;html=1;rounded=0;entryX=0.25;entryY=0;entryDx=0;entryDy=0;exitX=0.25;exitY=1;exitDx=0;exitDy=0;" edge="1" parent="1" source="HL-mYtazHuZGyib0t5cv-51" target="HL-mYtazHuZGyib0t5cv-51">
          <mxGeometry width="50" height="50" relative="1" as="geometry">
            <mxPoint x="799" y="520" as="sourcePoint" />
            <mxPoint x="849" y="470" as="targetPoint" />
          </mxGeometry>
        </mxCell>
        <mxCell id="HL-mYtazHuZGyib0t5cv-53" value="&lt;font style=&quot;font-size: 18px;&quot;&gt;X&lt;/font&gt;" style="text;html=1;strokeColor=none;fillColor=none;align=center;verticalAlign=middle;whiteSpace=wrap;rounded=0;" vertex="1" parent="1">
          <mxGeometry x="839" y="425" width="30" height="30" as="geometry" />
        </mxCell>
        <mxCell id="HL-mYtazHuZGyib0t5cv-54" value="" style="endArrow=classic;html=1;rounded=0;exitX=1;exitY=0.5;exitDx=0;exitDy=0;entryX=0;entryY=0.5;entryDx=0;entryDy=0;" edge="1" parent="1" source="HL-mYtazHuZGyib0t5cv-8" target="HL-mYtazHuZGyib0t5cv-13">
          <mxGeometry width="50" height="50" relative="1" as="geometry">
            <mxPoint x="250" y="570" as="sourcePoint" />
            <mxPoint x="410" y="440" as="targetPoint" />
          </mxGeometry>
        </mxCell>
        <mxCell id="HL-mYtazHuZGyib0t5cv-56" value="" style="endArrow=classic;html=1;rounded=0;exitX=1;exitY=0.5;exitDx=0;exitDy=0;entryX=0;entryY=0.5;entryDx=0;entryDy=0;" edge="1" parent="1">
          <mxGeometry width="50" height="50" relative="1" as="geometry">
            <mxPoint x="534" y="440" as="sourcePoint" />
            <mxPoint x="578" y="439" as="targetPoint" />
          </mxGeometry>
        </mxCell>
        <mxCell id="HL-mYtazHuZGyib0t5cv-57" value="" style="endArrow=classic;html=1;rounded=0;exitX=1;exitY=0.5;exitDx=0;exitDy=0;entryX=0;entryY=0.75;entryDx=0;entryDy=0;edgeStyle=elbowEdgeStyle;" edge="1" parent="1" source="HL-mYtazHuZGyib0t5cv-17" target="HL-mYtazHuZGyib0t5cv-21">
          <mxGeometry width="50" height="50" relative="1" as="geometry">
            <mxPoint x="544" y="450" as="sourcePoint" />
            <mxPoint x="588" y="449" as="targetPoint" />
          </mxGeometry>
        </mxCell>
        <mxCell id="HL-mYtazHuZGyib0t5cv-58" value="" style="endArrow=classic;html=1;rounded=0;entryX=-0.006;entryY=0.578;entryDx=0;entryDy=0;edgeStyle=elbowEdgeStyle;entryPerimeter=0;exitX=1;exitY=0.5;exitDx=0;exitDy=0;" edge="1" parent="1">
          <mxGeometry width="50" height="50" relative="1" as="geometry">
            <mxPoint x="618" y="444" as="sourcePoint" />
            <mxPoint x="660.28" y="504.01" as="targetPoint" />
            <Array as="points">
              <mxPoint x="640" y="470" />
            </Array>
          </mxGeometry>
        </mxCell>
        <mxCell id="HL-mYtazHuZGyib0t5cv-59" value="" style="endArrow=classic;html=1;rounded=0;exitX=1;exitY=0.5;exitDx=0;exitDy=0;entryX=0;entryY=0.25;entryDx=0;entryDy=0;edgeStyle=elbowEdgeStyle;" edge="1" parent="1" source="HL-mYtazHuZGyib0t5cv-21" target="HL-mYtazHuZGyib0t5cv-51">
          <mxGeometry width="50" height="50" relative="1" as="geometry">
            <mxPoint x="628" y="449" as="sourcePoint" />
            <mxPoint x="672" y="391" as="targetPoint" />
            <Array as="points">
              <mxPoint x="800" y="400" />
            </Array>
          </mxGeometry>
        </mxCell>
        <mxCell id="HL-mYtazHuZGyib0t5cv-60" value="" style="endArrow=classic;html=1;rounded=0;exitX=1.019;exitY=0.533;exitDx=0;exitDy=0;entryX=0;entryY=0.75;entryDx=0;entryDy=0;edgeStyle=elbowEdgeStyle;exitPerimeter=0;" edge="1" parent="1" source="HL-mYtazHuZGyib0t5cv-26" target="HL-mYtazHuZGyib0t5cv-51">
          <mxGeometry width="50" height="50" relative="1" as="geometry">
            <mxPoint x="792" y="380" as="sourcePoint" />
            <mxPoint x="839" y="440" as="targetPoint" />
            <Array as="points">
              <mxPoint x="810" y="470" />
            </Array>
          </mxGeometry>
        </mxCell>
        <mxCell id="HL-mYtazHuZGyib0t5cv-61" value="" style="endArrow=classic;html=1;rounded=0;exitX=1;exitY=0.5;exitDx=0;exitDy=0;entryX=0;entryY=0.5;entryDx=0;entryDy=0;" edge="1" parent="1">
          <mxGeometry width="50" height="50" relative="1" as="geometry">
            <mxPoint x="869" y="440.5" as="sourcePoint" />
            <mxPoint x="913" y="439.5" as="targetPoint" />
          </mxGeometry>
        </mxCell>
        <mxCell id="HL-mYtazHuZGyib0t5cv-62" value="" style="endArrow=classic;html=1;rounded=0;exitX=1;exitY=0.5;exitDx=0;exitDy=0;entryX=0;entryY=0.5;entryDx=0;entryDy=0;" edge="1" parent="1">
          <mxGeometry width="50" height="50" relative="1" as="geometry">
            <mxPoint x="1033" y="439" as="sourcePoint" />
            <mxPoint x="1077" y="438" as="targetPoint" />
          </mxGeometry>
        </mxCell>
        <mxCell id="HL-mYtazHuZGyib0t5cv-63" value="" style="endArrow=classic;html=1;rounded=0;exitX=0.632;exitY=-0.019;exitDx=0;exitDy=0;entryX=0.75;entryY=1;entryDx=0;entryDy=0;exitPerimeter=0;strokeWidth=1;" edge="1" parent="1">
          <mxGeometry width="50" height="50" relative="1" as="geometry">
            <mxPoint x="1148.8400000000001" y="510.645" as="sourcePoint" />
            <mxPoint x="1149" y="470" as="targetPoint" />
          </mxGeometry>
        </mxCell>
        <mxCell id="HL-mYtazHuZGyib0t5cv-66" value="" style="endArrow=classic;html=1;rounded=0;edgeStyle=elbowEdgeStyle;elbow=vertical;exitX=0.5;exitY=0;exitDx=0;exitDy=0;" edge="1" parent="1" source="HL-mYtazHuZGyib0t5cv-47">
          <mxGeometry width="50" height="50" relative="1" as="geometry">
            <mxPoint x="530" y="650" as="sourcePoint" />
            <mxPoint x="470" y="470" as="targetPoint" />
            <Array as="points">
              <mxPoint x="570" y="570" />
            </Array>
          </mxGeometry>
        </mxCell>
        <mxCell id="HL-mYtazHuZGyib0t5cv-67" value="" style="endArrow=classic;html=1;rounded=0;edgeStyle=elbowEdgeStyle;elbow=vertical;exitX=0.5;exitY=0;exitDx=0;exitDy=0;" edge="1" parent="1" source="HL-mYtazHuZGyib0t5cv-47">
          <mxGeometry width="50" height="50" relative="1" as="geometry">
            <mxPoint x="680" y="630" as="sourcePoint" />
            <mxPoint x="980" y="470" as="targetPoint" />
            <Array as="points">
              <mxPoint x="830" y="550" />
            </Array>
          </mxGeometry>
        </mxCell>
        <mxCell id="HL-mYtazHuZGyib0t5cv-68" value="" style="endArrow=classic;html=1;rounded=0;edgeStyle=elbowEdgeStyle;elbow=vertical;entryX=0.101;entryY=0.965;entryDx=0;entryDy=0;entryPerimeter=0;" edge="1" parent="1" target="HL-mYtazHuZGyib0t5cv-35">
          <mxGeometry width="50" height="50" relative="1" as="geometry">
            <mxPoint x="670" y="620" as="sourcePoint" />
            <mxPoint x="490" y="490" as="targetPoint" />
            <Array as="points">
              <mxPoint x="590" y="590" />
            </Array>
          </mxGeometry>
        </mxCell>
        <mxCell id="HL-mYtazHuZGyib0t5cv-70" value="J1" style="text;html=1;strokeColor=none;fillColor=none;align=center;verticalAlign=middle;whiteSpace=wrap;rounded=0;" vertex="1" parent="1">
          <mxGeometry x="588" y="455" width="60" height="30" as="geometry" />
        </mxCell>
        <mxCell id="HL-mYtazHuZGyib0t5cv-71" value="J2" style="text;html=1;strokeColor=none;fillColor=none;align=center;verticalAlign=middle;whiteSpace=wrap;rounded=0;" vertex="1" parent="1">
          <mxGeometry x="839" y="455" width="60" height="30" as="geometry" />
        </mxCell>
      </root>
    </mxGraphModel>
  </diagram>
</mxfile>
